# xmcd
# 
# Track frame offsets:
#     150
#     19585
#     37240
#     46312
#     62441
#     85193
#     102734
#     118049
#     138460
#     155485
#     180335
#     191642
# 
# Disc length: 2931
# 
# Revision: 2
# Processed by: cddbd v1.5.2PL0 Copyright (c) Steve Scherf et al.
# Submitted via: fre:ac v1.0.27
# 
DISCID=a00b710c
DTITLE=Dave Perkins - Pistol City Holiness
DYEAR=2009
DGENRE=Blues
TTITLE0=Break
TTITLE1=Going Down
TTITLE2=Cherryfish and Chicken
TTITLE3=Revival
TTITLE4=Long Eleven Road
TTITLE5=Bottles and Knives
TTITLE6=Train at Night
TTITLE7=Flown
TTITLE8=Tiger Texas
TTITLE9=Devil's Game
TTITLE10=Preacher Blues
TTITLE11=Mercy in the Morning
EXTD=
EXTT0=
EXTT1=
EXTT2=
EXTT3=
EXTT4=
EXTT5=
EXTT6=
EXTT7=
EXTT8=
EXTT9=
EXTT10=
EXTT11=
PLAYORDER=
